<?xml version="1.0" encoding="UTF-8" standalone="no"?>
<!-- Created with Inkscape (http://www.inkscape.org/) -->

<svg
   width="170mm"
   height="170mm"
   viewBox="0 0 170 170"
   version="1.1"
   id="svg7202"
   inkscape:version="1.2.1 (9c6d41e410, 2022-07-14)"
   sodipodi:docname="TaitLogoFinal.svg"
   xmlns:inkscape="http://www.inkscape.org/namespaces/inkscape"
   xmlns:sodipodi="http://sodipodi.sourceforge.net/DTD/sodipodi-0.dtd"
   xmlns="http://www.w3.org/2000/svg"
   xmlns:svg="http://www.w3.org/2000/svg">
  <sodipodi:namedview
     id="namedview7204"
     pagecolor="#ffffff"
     bordercolor="#000000"
     borderopacity="0.25"
     inkscape:showpageshadow="2"
     inkscape:pageopacity="1"
     inkscape:pagecheckerboard="0"
     inkscape:deskcolor="#d1d1d1"
     inkscape:document-units="mm"
     showgrid="false"
     inkscape:zoom="1.0129245"
     inkscape:cx="336.15536"
     inkscape:cy="355.90016"
     inkscape:window-width="1920"
     inkscape:window-height="991"
     inkscape:window-x="-9"
     inkscape:window-y="-9"
     inkscape:window-maximized="1"
     inkscape:current-layer="layer1" />
  <defs
     id="defs7199" />
  <g
     inkscape:label="Layer 1"
     inkscape:groupmode="layer"
     id="layer1">
    <path
       id="path4203"
       style="fill:#00bcdf;fill-opacity:1;stroke:none;stroke-width:0.228218;stroke-linecap:round;stroke-linejoin:round;stroke-dasharray:none;stroke-dashoffset:0;stroke-opacity:1"
       d="M 85.00029,10.000002 A 74.999965,74.999965 0 0 0 10,84.999719 74.999965,74.999965 0 0 0 85.00029,160 74.999965,74.999965 0 0 0 160,84.999719 74.999965,74.999965 0 0 0 157.25948,64.932459 l -16.57584,0.18518 -0.59451,43.522081 c -0.0155,1.23498 -1.08959,2.26614 -2.37749,2.27925 l -5.90336,0.0401 0.65097,-45.765762 -10.82886,0.111221 c 1.055,-0.915501 1.75142,-2.23486 1.7666,-3.715561 0.0206,-1.538819 -0.68685,-2.89649 -1.78692,-3.78333 l 16.83554,-0.15357 16.32572,-0.14849 A 74.999965,74.999965 0 0 0 85.00029,10.000013 Z m 30.91813,47.496227 0.13325,0.41554 -0.0722,0.0519 c -1.16438,0.821 -1.93065,2.18771 -1.95687,3.70147 v 0.009 c -0.0257,1.495011 0.66484,2.78686 1.74911,3.604341 l 0.0971,0.0745 -0.12873,0.171629 0.002,0.21399 -32.79484,0.309391 -34.261638,44.975901 c -0.959969,1.17406 -1.829672,1.41309 -3.033553,1.41091 h -0.01355 v -0.002 l -8.862955,0.0672 -0.250675,0.002 6.423356,-8.44177 28.844965,-37.897611 -24.890577,0.22584 5.881907,-7.29057 c 0.5059,-0.62171 1.2861,-1.01934 2.16691,-1.02698 z m 6.91907,12.58925 -0.52112,38.723611 -5.7e-4,-5.6e-4 c -0.0176,1.38758 -1.21329,2.52859 -2.64229,2.54292 -2.06285,0.0214 -4.12559,0.0365 -6.18847,0.0565 0.19857,-13.746861 0.39609,-27.494241 0.59395,-41.241111 z m -18.01667,0.0255 -0.54766,38.844991 v 0.002 0.007 c -0.0305,1.46515 -1.26009,2.66047 -2.76706,2.66375 l -6.28841,0.0542 0.004,-0.26423 0.12421,-8.31021 -19.65002,0.20269 c -0.1039,0.13714 -3.94097,5.20071 -5.61994,7.45768 -0.51078,0.68946 -1.33481,1.14721 -2.26345,1.14612 l -9.52917,0.0971 -0.25293,0.002 0.31842,-0.41723 c 0,0 7.86291,-10.30937 15.72895,-20.618301 3.93304,-5.15447 7.86825,-10.30793 10.82039,-14.17406 1.47607,-1.93306 2.70575,-3.54416 3.56821,-4.672 0.43123,-0.56393 0.77027,-1.00691 1.00216,-1.30928 0.11596,-0.15119 0.20606,-0.26663 0.26648,-0.34497 0.0298,-0.0385 0.0523,-0.0681 0.07,-0.0904 h -0.002 c 0.009,-0.0109 0.016,-0.0182 0.0203,-0.0248 l 0.004,-0.004 0.002,-0.004 0.009,-0.009 c 0,0 0.0134,-0.0123 0.0135,-0.0125 0,0 0.005,-0.003 0.007,-0.004 0.002,-0.002 0.003,-10e-4 0.004,-0.002 0.002,-0.001 0.004,-0.003 0.007,-0.004 0.004,-0.002 0.007,-0.004 0.0113,-0.007 0.01,-0.005 0.0223,-0.012 0.0339,-0.0175 0.0115,-0.008 0.0217,-0.012 0.0294,-0.0164 0.009,-0.004 0.0667,-0.0211 0.07,-0.0221 h 0.002 z m -9.20001,6.582 -14.70929,19.28643 0.25067,-0.002 14.33893,-0.137759 0.25011,-0.002 0.27778,-19.00414 z" />
  </g>
</svg>
